<?xml version="1.0" encoding="UTF-8" standalone="no"?>
<!DOCTYPE svg PUBLIC "-//W3C//DTD SVG 1.1//EN"
 "http://www.w3.org/Graphics/SVG/1.1/DTD/svg11.dtd">
<!-- Generated by graphviz version 2.40.1 (20161225.0304)
 -->
<!-- Title: include/utp_types.h Pages: 1 -->
<svg width="338pt" height="84pt"
 viewBox="0.00 0.00 337.50 84.00" xmlns="http://www.w3.org/2000/svg" xmlns:xlink="http://www.w3.org/1999/xlink">
<g id="graph0" class="graph" transform="scale(1 1) rotate(0) translate(4 80)">
<title>include/utp_types.h</title>
<polygon fill="#ffffff" stroke="transparent" points="-4,4 -4,-80 333.5,-80 333.5,4 -4,4"/>
<!-- Node0 -->
<g id="node1" class="node">
<title>Node0</title>
<g id="a_node1"><a xlink:title=" ">
<polygon fill="#bfbfbf" stroke="#000000" points="109,-56.5 109,-75.5 221,-75.5 221,-56.5 109,-56.5"/>
<text text-anchor="middle" x="165" y="-63.5" font-family="Helvetica,sans-Serif" font-size="10.00" fill="#000000">include/utp_types.h</text>
</a>
</g>
</g>
<!-- Node1 -->
<g id="node2" class="node">
<title>Node1</title>
<g id="a_node2"><a xlink:title=" ">
<polygon fill="#ffffff" stroke="#bfbfbf" points="0,-.5 0,-19.5 72,-19.5 72,-.5 0,-.5"/>
<text text-anchor="middle" x="36" y="-7.5" font-family="Helvetica,sans-Serif" font-size="10.00" fill="#000000">netinet/in.h</text>
</a>
</g>
</g>
<!-- Node0&#45;&gt;Node1 -->
<g id="edge1" class="edge">
<title>Node0&#45;&gt;Node1</title>
<path fill="none" stroke="#191970" d="M142.8241,-56.3733C122.0234,-47.3435 90.7083,-33.7494 67.3542,-23.6111"/>
<polygon fill="#191970" stroke="#191970" points="68.4532,-20.2727 57.8865,-19.5011 65.6657,-26.6938 68.4532,-20.2727"/>
</g>
<!-- Node2 -->
<g id="node3" class="node">
<title>Node2</title>
<g id="a_node3"><a xlink:title=" ">
<polygon fill="#ffffff" stroke="#bfbfbf" points="90.5,-.5 90.5,-19.5 159.5,-19.5 159.5,-.5 90.5,-.5"/>
<text text-anchor="middle" x="125" y="-7.5" font-family="Helvetica,sans-Serif" font-size="10.00" fill="#000000">arpa/inet.h</text>
</a>
</g>
</g>
<!-- Node0&#45;&gt;Node2 -->
<g id="edge2" class="edge">
<title>Node0&#45;&gt;Node2</title>
<path fill="none" stroke="#191970" d="M158.0325,-56.2455C152.4689,-48.4564 144.522,-37.3308 137.8171,-27.9439"/>
<polygon fill="#191970" stroke="#191970" points="140.5481,-25.7457 131.8876,-19.6427 134.852,-29.8144 140.5481,-25.7457"/>
</g>
<!-- Node3 -->
<g id="node4" class="node">
<title>Node3</title>
<g id="a_node4"><a xlink:title=" ">
<polygon fill="#ffffff" stroke="#bfbfbf" points="178,-.5 178,-19.5 234,-19.5 234,-.5 178,-.5"/>
<text text-anchor="middle" x="206" y="-7.5" font-family="Helvetica,sans-Serif" font-size="10.00" fill="#000000">unistd.h</text>
</a>
</g>
</g>
<!-- Node0&#45;&gt;Node3 -->
<g id="edge3" class="edge">
<title>Node0&#45;&gt;Node3</title>
<path fill="none" stroke="#191970" d="M172.1417,-56.2455C177.8444,-48.4564 185.99,-37.3308 192.8625,-27.9439"/>
<polygon fill="#191970" stroke="#191970" points="195.8568,-29.7789 198.9402,-19.6427 190.2087,-25.6437 195.8568,-29.7789"/>
</g>
<!-- Node4 -->
<g id="node5" class="node">
<title>Node4</title>
<g id="a_node5"><a xlink:title=" ">
<polygon fill="#ffffff" stroke="#bfbfbf" points="252.5,-.5 252.5,-19.5 329.5,-19.5 329.5,-.5 252.5,-.5"/>
<text text-anchor="middle" x="291" y="-7.5" font-family="Helvetica,sans-Serif" font-size="10.00" fill="#000000">sys/socket.h</text>
</a>
</g>
</g>
<!-- Node0&#45;&gt;Node4 -->
<g id="edge4" class="edge">
<title>Node0&#45;&gt;Node4</title>
<path fill="none" stroke="#191970" d="M186.6602,-56.3733C206.9772,-47.3435 237.564,-33.7494 260.375,-23.6111"/>
<polygon fill="#191970" stroke="#191970" points="261.9059,-26.7609 269.6225,-19.5011 259.0628,-20.3642 261.9059,-26.7609"/>
</g>
</g>
</svg>
