<?xml version="1.0" encoding="UTF-8" standalone="no"?>
<!DOCTYPE svg PUBLIC "-//W3C//DTD SVG 1.1//EN"
 "http://www.w3.org/Graphics/SVG/1.1/DTD/svg11.dtd">
<!-- Generated by graphviz version 2.40.1 (20161225.0304)
 -->
<!-- Title: utpwrapper.c Pages: 1 -->
<svg width="375pt" height="196pt"
 viewBox="0.00 0.00 374.50 196.00" xmlns="http://www.w3.org/2000/svg" xmlns:xlink="http://www.w3.org/1999/xlink">
<g id="graph0" class="graph" transform="scale(1 1) rotate(0) translate(4 192)">
<title>utpwrapper.c</title>
<polygon fill="#ffffff" stroke="transparent" points="-4,4 -4,-192 370.5,-192 370.5,4 -4,4"/>
<!-- Node0 -->
<g id="node1" class="node">
<title>Node0</title>
<g id="a_node1"><a xlink:title=" ">
<polygon fill="#bfbfbf" stroke="#000000" points="55,-168.5 55,-187.5 135,-187.5 135,-168.5 55,-168.5"/>
<text text-anchor="middle" x="95" y="-175.5" font-family="Helvetica,sans-Serif" font-size="10.00" fill="#000000">utpwrapper.c</text>
</a>
</g>
</g>
<!-- Node1 -->
<g id="node2" class="node">
<title>Node1</title>
<g id="a_node2"><a xlink:title=" ">
<polygon fill="#ffffff" stroke="#bfbfbf" points="0,-112.5 0,-131.5 50,-131.5 50,-112.5 0,-112.5"/>
<text text-anchor="middle" x="25" y="-119.5" font-family="Helvetica,sans-Serif" font-size="10.00" fill="#000000">stdio.h</text>
</a>
</g>
</g>
<!-- Node0&#45;&gt;Node1 -->
<g id="edge1" class="edge">
<title>Node0&#45;&gt;Node1</title>
<path fill="none" stroke="#191970" d="M82.8069,-168.2455C72.3679,-159.8943 57.1345,-147.7076 44.926,-137.9408"/>
<polygon fill="#191970" stroke="#191970" points="47.0485,-135.1566 37.0533,-131.6427 42.6756,-140.6227 47.0485,-135.1566"/>
</g>
<!-- Node2 -->
<g id="node3" class="node">
<title>Node2</title>
<g id="a_node3"><a xlink:title=" ">
<polygon fill="#ffffff" stroke="#bfbfbf" points="68.5,-112.5 68.5,-131.5 121.5,-131.5 121.5,-112.5 68.5,-112.5"/>
<text text-anchor="middle" x="95" y="-119.5" font-family="Helvetica,sans-Serif" font-size="10.00" fill="#000000">stdint.h</text>
</a>
</g>
</g>
<!-- Node0&#45;&gt;Node2 -->
<g id="edge2" class="edge">
<title>Node0&#45;&gt;Node2</title>
<path fill="none" stroke="#191970" d="M95,-168.2455C95,-160.9382 95,-150.6944 95,-141.7046"/>
<polygon fill="#191970" stroke="#191970" points="98.5001,-141.6426 95,-131.6427 91.5001,-141.6427 98.5001,-141.6426"/>
</g>
<!-- Node3 -->
<g id="node4" class="node">
<title>Node3</title>
<g id="a_node4"><a xlink:href="utp_8h.html" target="_top" xlink:title=" ">
<polygon fill="#ffffff" stroke="#000000" points="139.5,-112.5 139.5,-131.5 180.5,-131.5 180.5,-112.5 139.5,-112.5"/>
<text text-anchor="middle" x="160" y="-119.5" font-family="Helvetica,sans-Serif" font-size="10.00" fill="#000000">utp.h</text>
</a>
</g>
</g>
<!-- Node0&#45;&gt;Node3 -->
<g id="edge3" class="edge">
<title>Node0&#45;&gt;Node3</title>
<path fill="none" stroke="#191970" d="M106.3221,-168.2455C115.9223,-159.9746 129.8892,-147.9416 141.1695,-138.2232"/>
<polygon fill="#191970" stroke="#191970" points="143.516,-140.8214 148.8076,-131.6427 138.947,-135.5182 143.516,-140.8214"/>
</g>
<!-- Node4 -->
<g id="node5" class="node">
<title>Node4</title>
<g id="a_node5"><a xlink:title=" ">
<polygon fill="#ffffff" stroke="#bfbfbf" points="91,-56.5 91,-75.5 147,-75.5 147,-56.5 91,-56.5"/>
<text text-anchor="middle" x="119" y="-63.5" font-family="Helvetica,sans-Serif" font-size="10.00" fill="#000000">stdarg.h</text>
</a>
</g>
</g>
<!-- Node3&#45;&gt;Node4 -->
<g id="edge4" class="edge">
<title>Node3&#45;&gt;Node4</title>
<path fill="none" stroke="#191970" d="M152.8583,-112.2455C147.1556,-104.4564 139.01,-93.3308 132.1375,-83.9439"/>
<polygon fill="#191970" stroke="#191970" points="134.7913,-81.6437 126.0598,-75.6427 129.1432,-85.7789 134.7913,-81.6437"/>
</g>
<!-- Node5 -->
<g id="node6" class="node">
<title>Node5</title>
<g id="a_node6"><a xlink:href="utp__types_8h.html" target="_top" xlink:title=" ">
<polygon fill="#ffffff" stroke="#000000" points="165,-56.5 165,-75.5 239,-75.5 239,-56.5 165,-56.5"/>
<text text-anchor="middle" x="202" y="-63.5" font-family="Helvetica,sans-Serif" font-size="10.00" fill="#000000">utp_types.h</text>
</a>
</g>
</g>
<!-- Node3&#45;&gt;Node5 -->
<g id="edge5" class="edge">
<title>Node3&#45;&gt;Node5</title>
<path fill="none" stroke="#191970" d="M167.3158,-112.2455C173.2179,-104.3761 181.6742,-93.101 188.7594,-83.6542"/>
<polygon fill="#191970" stroke="#191970" points="191.568,-85.7427 194.768,-75.6427 185.9679,-81.5427 191.568,-85.7427"/>
</g>
<!-- Node6 -->
<g id="node7" class="node">
<title>Node6</title>
<g id="a_node7"><a xlink:title=" ">
<polygon fill="#ffffff" stroke="#bfbfbf" points="37,-.5 37,-19.5 109,-19.5 109,-.5 37,-.5"/>
<text text-anchor="middle" x="73" y="-7.5" font-family="Helvetica,sans-Serif" font-size="10.00" fill="#000000">netinet/in.h</text>
</a>
</g>
</g>
<!-- Node5&#45;&gt;Node6 -->
<g id="edge6" class="edge">
<title>Node5&#45;&gt;Node6</title>
<path fill="none" stroke="#191970" d="M179.8241,-56.3733C159.0234,-47.3435 127.7083,-33.7494 104.3542,-23.6111"/>
<polygon fill="#191970" stroke="#191970" points="105.4532,-20.2727 94.8865,-19.5011 102.6657,-26.6938 105.4532,-20.2727"/>
</g>
<!-- Node7 -->
<g id="node8" class="node">
<title>Node7</title>
<g id="a_node8"><a xlink:title=" ">
<polygon fill="#ffffff" stroke="#bfbfbf" points="127.5,-.5 127.5,-19.5 196.5,-19.5 196.5,-.5 127.5,-.5"/>
<text text-anchor="middle" x="162" y="-7.5" font-family="Helvetica,sans-Serif" font-size="10.00" fill="#000000">arpa/inet.h</text>
</a>
</g>
</g>
<!-- Node5&#45;&gt;Node7 -->
<g id="edge7" class="edge">
<title>Node5&#45;&gt;Node7</title>
<path fill="none" stroke="#191970" d="M195.0325,-56.2455C189.4689,-48.4564 181.522,-37.3308 174.8171,-27.9439"/>
<polygon fill="#191970" stroke="#191970" points="177.5481,-25.7457 168.8876,-19.6427 171.852,-29.8144 177.5481,-25.7457"/>
</g>
<!-- Node8 -->
<g id="node9" class="node">
<title>Node8</title>
<g id="a_node9"><a xlink:title=" ">
<polygon fill="#ffffff" stroke="#bfbfbf" points="215,-.5 215,-19.5 271,-19.5 271,-.5 215,-.5"/>
<text text-anchor="middle" x="243" y="-7.5" font-family="Helvetica,sans-Serif" font-size="10.00" fill="#000000">unistd.h</text>
</a>
</g>
</g>
<!-- Node5&#45;&gt;Node8 -->
<g id="edge8" class="edge">
<title>Node5&#45;&gt;Node8</title>
<path fill="none" stroke="#191970" d="M209.1417,-56.2455C214.8444,-48.4564 222.99,-37.3308 229.8625,-27.9439"/>
<polygon fill="#191970" stroke="#191970" points="232.8568,-29.7789 235.9402,-19.6427 227.2087,-25.6437 232.8568,-29.7789"/>
</g>
<!-- Node9 -->
<g id="node10" class="node">
<title>Node9</title>
<g id="a_node10"><a xlink:title=" ">
<polygon fill="#ffffff" stroke="#bfbfbf" points="289.5,-.5 289.5,-19.5 366.5,-19.5 366.5,-.5 289.5,-.5"/>
<text text-anchor="middle" x="328" y="-7.5" font-family="Helvetica,sans-Serif" font-size="10.00" fill="#000000">sys/socket.h</text>
</a>
</g>
</g>
<!-- Node5&#45;&gt;Node9 -->
<g id="edge9" class="edge">
<title>Node5&#45;&gt;Node9</title>
<path fill="none" stroke="#191970" d="M223.6602,-56.3733C243.9772,-47.3435 274.564,-33.7494 297.375,-23.6111"/>
<polygon fill="#191970" stroke="#191970" points="298.9059,-26.7609 306.6225,-19.5011 296.0628,-20.3642 298.9059,-26.7609"/>
</g>
</g>
</svg>
